<svg width="1600" height="900" viewBox="0 0 1600 900" fill="none" xmlns="http://www.w3.org/2000/svg">
  <rect width="1600" height="900" fill="#080B11"/>
  <rect width="1600" height="900" fill="url(#bg)"/>
  <g opacity="0.35">
    <path d="M160 142H1440" stroke="#283244"/>
    <path d="M160 238H1440" stroke="#283244"/>
    <path d="M160 334H1440" stroke="#283244"/>
    <path d="M160 430H1440" stroke="#283244"/>
    <path d="M160 526H1440" stroke="#283244"/>
    <path d="M160 622H1440" stroke="#283244"/>
    <path d="M160 718H1440" stroke="#283244"/>
    <path d="M270 90V760" stroke="#283244"/>
    <path d="M530 90V760" stroke="#283244"/>
    <path d="M790 90V760" stroke="#283244"/>
    <path d="M1050 90V760" stroke="#283244"/>
    <path d="M1310 90V760" stroke="#283244"/>
  </g>
  <rect x="210" y="120" width="1180" height="520" rx="28" fill="#0B1118" fill-opacity="0.82" stroke="#2D3748" stroke-width="2"/>
  <g filter="url(#glow)">
    <circle cx="800" cy="382" r="154" fill="#0F1825" stroke="#CF7B3E" stroke-width="6"/>
    <circle cx="800" cy="382" r="112" stroke="#8093AE" stroke-opacity="0.75" stroke-width="2" stroke-dasharray="8 10"/>
    <path d="M800 260V505" stroke="#E7EDF7" stroke-width="3" stroke-opacity="0.8"/>
    <path d="M678 382H922" stroke="#E7EDF7" stroke-width="3" stroke-opacity="0.8"/>
    <path d="M716 298L884 466" stroke="#E7EDF7" stroke-width="3" stroke-opacity="0.45"/>
    <path d="M884 298L716 466" stroke="#E7EDF7" stroke-width="3" stroke-opacity="0.45"/>
  </g>
  <g opacity="0.9">
    <rect x="320" y="194" width="188" height="62" rx="14" fill="#111925" stroke="#2F3B4F"/>
    <text x="348" y="234" fill="#AFC1DB" font-family="Arial, sans-serif" font-size="28" font-weight="700">SECTOR A-01</text>
    <rect x="1094" y="194" width="186" height="62" rx="14" fill="#111925" stroke="#2F3B4F"/>
    <text x="1128" y="234" fill="#AFC1DB" font-family="Arial, sans-serif" font-size="28" font-weight="700">STATUS: LIVE</text>
  </g>
  <g>
    <path d="M510 382H635" stroke="#CF7B3E" stroke-width="3"/>
    <path d="M965 382H1090" stroke="#CF7B3E" stroke-width="3"/>
    <path d="M800 535V630" stroke="#CF7B3E" stroke-width="3"/>
    <circle cx="510" cy="382" r="12" fill="#CF7B3E"/>
    <circle cx="1090" cy="382" r="12" fill="#CF7B3E"/>
    <circle cx="800" cy="630" r="12" fill="#CF7B3E"/>
  </g>
  <rect y="708" width="1600" height="192" fill="#091019" fill-opacity="0.92"/>
  <text x="128" y="790" fill="#EAF0F8" font-family="Georgia, serif" font-size="82" font-weight="700" letter-spacing="3">TERMINAL BASTION</text>
  <text x="128" y="846" fill="#A8B4C9" font-family="Arial, sans-serif" font-size="30" letter-spacing="3">SOLO DEFENSE STRATEGY WITH SYSTEM READABILITY AT THE CORE</text>
  <defs>
    <linearGradient id="bg" x1="243" y1="115" x2="1334" y2="842" gradientUnits="userSpaceOnUse">
      <stop stop-color="#111722"/>
      <stop offset="0.48" stop-color="#090D14"/>
      <stop offset="1" stop-color="#121A24"/>
    </linearGradient>
    <filter id="glow" x="620" y="202" width="360" height="486" filterUnits="userSpaceOnUse" color-interpolation-filters="sRGB">
      <feFlood flood-opacity="0" result="BackgroundImageFix"/>
      <feBlend mode="normal" in="SourceGraphic" in2="BackgroundImageFix" result="shape"/>
      <feGaussianBlur stdDeviation="16" result="effect1_foregroundBlur_1_2"/>
    </filter>
  </defs>
</svg>
